<svg width="1498" height="1619" viewBox="0 0 1498 1619" fill="none" xmlns="http://www.w3.org/2000/svg">
<path d="M1152.56 473C1143.89 491.391 1130.11 508.271 1118.74 525.094C1105.57 544.593 1092.43 564.112 1079.61 583.845C1077.59 586.958 1075.56 590.067 1073.53 593.176C1066.58 603.812 1059.65 614.46 1052.74 625.113C1050.61 628.384 1048.48 631.652 1046.35 634.918C1038.93 646.3 1031.61 657.741 1024.33 669.213C1022.56 671.993 1020.79 674.768 1019.02 677.543C1012.23 688.179 1005.52 698.863 998.895 709.602C988.895 725.798 978.743 741.894 968.462 757.914C964.813 763.6 961.183 769.298 957.56 775C953.185 781.883 948.796 788.756 944.395 795.622C938.98 804.069 933.579 812.522 928.281 821.043C924.194 827.608 920.035 834.126 915.878 840.646C912.026 846.691 908.192 852.747 904.372 858.812C900.194 865.442 895.961 872.033 891.692 878.605C888.38 883.712 885.116 888.849 881.872 894C872.002 909.667 862.024 925.264 851.872 940.75C847.053 948.101 842.348 955.51 837.747 963C813.832 1001.91 786.689 1033.42 746.56 1056C745.54 1056.58 744.52 1057.15 743.469 1057.75C688.922 1088.46 630.788 1113.07 571.766 1133.85C569.396 1134.7 567.042 1135.57 564.689 1136.46C560.531 1138.03 556.332 1139.45 552.114 1140.85C551.341 1141.11 550.567 1141.36 549.77 1141.63C547.325 1142.44 544.88 1143.25 542.435 1144.06C540.787 1144.61 539.14 1145.16 537.493 1145.71C529.309 1148.43 529.309 1148.43 526.423 1149.38C524.707 1149.95 523.002 1150.56 521.298 1151.17C518.56 1152 518.56 1152 514.56 1152C516.915 1144.34 520.047 1137.19 523.435 1129.94C523.719 1129.33 524.004 1128.72 524.297 1128.09C546.612 1080.35 576.26 1034.31 609.575 993.445C611.601 990.948 613.587 988.423 615.568 985.89C623.828 975.326 632.339 965.019 641.153 954.914C643.437 952.295 645.707 949.665 647.966 947.023C653.236 940.871 658.494 934.82 664.364 929.223C666.237 927.326 667.959 925.392 669.692 923.371C674.866 917.408 680.556 911.959 686.177 906.422C690.642 901.998 694.971 897.536 699.044 892.746C702.725 888.505 706.748 884.659 711.032 881.035C716.828 875.987 722.163 870.466 727.56 865C739.559 852.845 739.559 852.845 745.919 847.418C748.079 845.551 750.072 843.548 752.06 841.5C755.421 838.093 758.897 834.925 762.528 831.812C765.519 829.144 768.301 826.282 771.091 823.406C773.792 820.774 776.611 818.318 779.458 815.847C782.795 812.914 786.018 809.864 789.247 806.812C790.655 805.487 792.064 804.161 793.474 802.836C794.165 802.186 794.856 801.536 795.568 800.866C798.405 798.208 801.261 795.57 804.122 792.938C808.742 788.684 813.345 784.411 817.935 780.125C818.556 779.545 819.177 778.965 819.818 778.367C823.069 775.33 826.318 772.29 829.563 769.246C835.216 763.951 840.864 758.685 846.739 753.637C849.735 750.943 852.524 748.043 855.352 745.176C857.301 743.255 859.29 741.46 861.372 739.688C865.513 736.142 869.301 732.287 873.128 728.412C876.525 724.989 880.027 721.767 883.7 718.641C886.453 716.212 888.989 713.58 891.563 710.965C893.481 709.078 895.455 707.313 897.497 705.562C900.488 702.993 903.291 700.307 906.06 697.5C909.442 694.071 912.94 690.88 916.595 687.746C919.374 685.276 921.948 682.621 924.556 679.973C927.142 677.427 929.875 675.08 932.626 672.715C934.514 671.04 936.291 669.301 938.06 667.5C940.41 665.107 942.824 662.868 945.372 660.688C948.583 657.924 951.582 655.014 954.56 652C958.034 648.488 961.578 645.164 965.325 641.949C977.052 631.719 988.265 620.849 999.61 610.199C1000.28 609.567 1000.96 608.935 1001.65 608.284C1003 607.017 1004.35 605.75 1005.7 604.483C1010.52 599.96 1015.38 595.478 1020.25 591.007C1023.57 587.942 1026.79 584.798 1029.96 581.57C1031.74 579.821 1033.6 578.193 1035.5 576.562C1038.31 574.144 1040.96 571.641 1043.56 569C1046.1 566.421 1048.68 563.978 1051.43 561.625C1054.63 558.884 1057.6 555.993 1060.56 553C1064.04 549.486 1067.58 546.151 1071.33 542.938C1074.29 540.364 1077.17 537.715 1080.06 535.062C1080.6 534.565 1081.14 534.068 1081.7 533.555C1082.99 532.371 1084.27 531.185 1085.56 530C1078.89 534.112 1072.44 538.456 1066.09 543.038C1061.8 546.124 1057.48 549.144 1053.12 552.125C1038.97 561.818 1024.86 571.582 1010.93 581.59C1007.07 584.356 1003.19 587.082 999.31 589.812C991.1 595.595 982.957 601.467 974.826 607.359C971.073 610.076 967.316 612.788 963.56 615.5C962.059 616.583 960.559 617.667 959.06 618.75C950.06 625.25 950.06 625.25 947.81 626.875C946.309 627.959 944.808 629.043 943.307 630.127C939.572 632.826 935.835 635.523 932.095 638.215C921.193 646.067 910.364 654.014 899.56 662C889.519 669.421 879.462 676.812 869.329 684.106C863.878 688.034 858.463 692.007 853.06 696C839.032 706.357 824.886 716.528 810.579 726.496C807.38 728.725 804.189 730.966 801.009 733.223C786.948 743.176 772.604 752.698 758.25 762.22C753.761 765.199 749.284 768.194 744.812 771.198C705.402 797.637 664.264 821.724 622.816 844.799C615.654 848.796 608.564 852.902 601.497 857.062C593.665 861.671 585.762 866.095 577.747 870.375C565.451 876.95 553.5 884.052 541.544 891.218C538.242 893.189 534.923 895.13 531.599 897.063C522.586 902.308 513.777 907.854 504.984 913.459C502.548 915.007 500.106 916.544 497.661 918.078C487.854 924.233 478.143 930.503 468.56 937C467.935 937.421 467.311 937.841 466.668 938.275C446.664 951.775 427.271 966.153 409.048 981.984C406.775 983.959 404.482 985.906 402.165 987.828C388.768 998.993 376.215 1011.17 365.56 1025C364.685 1026.09 363.809 1027.17 362.931 1028.25C348.882 1045.66 336.709 1064.66 329.56 1086C329.317 1086.72 329.074 1087.44 328.824 1088.18C321.798 1109.88 321.632 1134.52 331.31 1155.44C334.431 1161.17 338.228 1166.13 342.56 1171C343.164 1171.7 343.769 1172.4 344.392 1173.12C362.697 1192.93 393.692 1200.64 419.56 1202C450.723 1202.98 480.075 1200.18 510.348 1192.71C513.738 1191.96 517.118 1191.45 520.56 1191C517.127 1194.43 512.291 1195.31 507.747 1196.81C506.673 1197.17 505.598 1197.52 504.492 1197.89C495.027 1200.96 485.494 1203.4 475.774 1205.51C473.884 1205.93 472.003 1206.39 470.126 1206.86C429.573 1216.74 380.8 1215.69 344.139 1193.91C322.091 1180.19 307.651 1159.19 301.56 1134C293.884 1098.25 304.518 1061.3 319.56 1029C319.891 1028.29 320.222 1027.58 320.563 1026.84C334.384 997.494 352.976 970.168 374.56 946C375.327 945.134 376.094 944.267 376.884 943.375C379.092 940.901 381.322 938.448 383.56 936C384.013 935.501 384.466 935.003 384.934 934.489C393.717 924.837 402.61 915.401 412.476 906.838C415.858 903.855 419.105 900.733 422.372 897.625C427.636 892.659 432.952 887.861 438.618 883.352C440.886 881.538 443.121 879.702 445.345 877.836C455.024 869.729 464.972 862.102 475.204 854.707C477.498 853.045 479.78 851.368 482.06 849.688C492.121 842.298 502.431 835.377 512.955 828.664C515.587 826.983 518.212 825.291 520.837 823.598C557.52 800.005 595.507 778.938 634.497 759.438C635.921 758.725 635.921 758.725 637.373 757.998C649.972 751.699 662.583 745.49 675.56 740C682.23 737.123 688.795 734.024 695.356 730.906C696.055 730.574 696.754 730.243 697.474 729.902C698.092 729.608 698.71 729.314 699.347 729.011C701.139 728.192 702.946 727.409 704.759 726.637C709.032 724.814 713.244 722.864 717.458 720.91C718.292 720.524 719.127 720.139 719.986 719.741C722.636 718.516 725.285 717.289 727.935 716.062C730.577 714.839 733.219 713.617 735.861 712.395C737.499 711.637 739.136 710.879 740.773 710.121C745.364 707.997 749.973 705.919 754.599 703.872C758.302 702.225 761.961 700.487 765.622 698.75C766.447 698.359 767.272 697.967 768.122 697.564C775.273 694.16 782.361 690.639 789.432 687.07C791.728 685.915 794.03 684.771 796.333 683.629C807.833 677.92 819.234 672.048 830.56 666C831.477 665.512 832.395 665.023 833.34 664.52C847.555 656.943 861.527 649.018 875.408 640.849C881.048 637.541 886.709 634.27 892.372 631C893.427 630.389 894.482 629.778 895.569 629.149C902.18 625.332 908.841 621.623 915.56 618C910.126 619.433 904.886 621.226 899.674 623.313C888.89 627.631 877.931 631.27 866.872 634.812C864.979 635.423 863.086 636.035 861.194 636.647C856.515 638.158 851.835 639.664 847.153 641.167C842.62 642.623 838.087 644.084 833.555 645.545C830.334 646.584 827.111 647.622 823.888 648.657C817.652 650.663 811.433 652.709 805.231 654.821C795.718 658.057 786.131 660.859 776.44 663.514C770.855 665.051 765.348 666.673 759.872 668.562C753.004 670.929 746.044 672.823 739.028 674.697C732.791 676.37 726.607 678.167 720.435 680.062C712.983 682.34 705.495 684.33 697.925 686.174C692.374 687.53 686.869 689.002 681.372 690.562C675.63 692.189 669.878 693.67 664.06 695C658.492 696.274 652.989 697.683 647.497 699.25C634.988 702.809 622.34 705.844 609.717 708.969C605.987 709.893 602.259 710.824 598.53 711.758C591.89 713.419 585.249 715.074 578.607 716.726C568.584 719.22 558.561 721.717 548.54 724.216C542.534 725.714 536.527 727.21 530.52 728.703C505.288 734.976 480.078 741.317 454.95 747.996C453.968 748.257 452.986 748.518 451.974 748.787C435.585 753.15 419.228 757.627 402.888 762.167C383.135 767.647 383.135 767.647 374.56 769C375.856 766.406 376.896 766.25 379.548 765.152C380.811 764.622 380.811 764.622 382.1 764.081C383.472 763.515 383.472 763.515 384.872 762.938C386.789 762.133 388.706 761.327 390.622 760.52C391.606 760.105 392.589 759.691 393.602 759.264C399.046 756.937 404.428 754.475 409.809 752.008C413.444 750.352 417.069 748.777 420.821 747.402C423.9 746.247 426.674 744.992 429.56 743.438C433.859 741.228 437.831 739.963 442.56 739V737L449.56 736V734C450.214 733.72 450.868 733.441 451.543 733.152C454.778 731.769 458.012 730.385 461.247 729C461.859 728.738 462.472 728.476 463.102 728.206C470.98 724.834 478.85 721.445 486.708 718.027C504.903 710.118 523.136 702.365 541.56 695C542.748 694.525 542.748 694.525 543.96 694.04C545.567 693.398 547.174 692.755 548.782 692.113C551.478 691.033 554.172 689.948 556.866 688.862C605.541 669.248 654.696 650.969 704.054 633.152C721.646 626.799 739.203 620.358 756.747 613.875C773.845 607.559 790.957 601.311 808.153 595.265C817.75 591.884 827.323 588.433 836.901 584.996C840.349 583.758 843.798 582.521 847.247 581.285C857.152 577.733 867.057 574.181 876.96 570.623C880.818 569.238 884.678 567.855 888.537 566.472C890.32 565.832 892.103 565.192 893.886 564.551C901.763 561.717 909.606 558.896 917.654 556.578C920.135 555.825 922.455 554.829 924.81 553.75C931.595 550.835 938.592 548.679 945.643 546.499C950.305 545.054 954.911 543.551 959.467 541.8C961.934 540.857 964.413 539.955 966.895 539.055C970.548 537.73 974.199 536.403 977.849 535.07C987.167 531.672 996.493 528.298 1005.85 525.01C1010.52 523.371 1015.17 521.697 1019.82 519.996C1024.17 518.415 1028.54 516.881 1032.91 515.344C1035.75 514.299 1038.54 513.201 1041.34 512.059C1046.47 509.993 1051.68 508.258 1056.93 506.562C1062.55 504.727 1068.09 502.886 1073.5 500.5C1079.98 497.666 1086.71 495.652 1093.47 493.586C1099.64 491.683 1105.59 489.453 1111.56 487C1120.95 483.359 1130.43 479.954 1139.93 476.625C1140.95 476.267 1141.97 475.909 1143.02 475.54C1144.44 475.045 1144.44 475.045 1145.9 474.539C1146.75 474.242 1147.6 473.945 1148.48 473.639C1150.56 473 1150.56 473 1152.56 473Z" fill="#f4efe6"/>
<rect x="198.5" y="337.5" width="1055" height="1011" rx="180.5" stroke="#f4efe6" stroke-width="39"/>
</svg>
