<svg width="1498" height="1619" viewBox="0 0 1498 1619" fill="none" xmlns="http://www.w3.org/2000/svg">
<path d="M1096.5 304H402.5C302.813 304 222 384.813 222 484.5V1134.5C222 1234.19 302.813 1315 402.5 1315H1096.5C1196.19 1315 1277 1234.19 1277 1134.5V484.5C1277 384.813 1196.19 304 1096.5 304Z" stroke="#f4efe6" stroke-width="39"/>
<path d="M309.125 320C360.872 350.418 412.603 380.862 464.025 411.818C517.972 444.295 576.31 470.227 623.182 513.459C641.556 530.407 662.548 539.017 686.17 544.262C721.291 552.06 752.592 566.342 774.235 597.252C781.683 607.888 791.622 616.816 800.663 626.295C813.866 640.138 820.995 639.282 829.979 622.382C838.863 605.671 855.303 606.314 870.328 604.804C883.951 603.435 889.906 613.422 894.688 624.459C901.513 640.207 908.571 655.837 912.15 673.215C915.959 673.215 918.878 673.398 921.768 673.186C945.784 671.416 950.439 674.252 959.12 696.673C963.631 708.323 968.508 719.891 972.008 731.851C974.078 738.926 977.296 742.531 984.462 740.919C1007.76 735.678 1016.72 749.775 1022.74 768.459C1025.84 778.078 1030.79 787.272 1032.63 797.083C1034.84 808.93 1041.08 811.656 1051.56 809.624C1067.17 806.599 1076 813.374 1081.22 828.133C1087.1 844.791 1095.41 860.566 1099.32 877.616C1136.89 877.474 1136.9 877.472 1150.95 912.612C1152.94 917.586 1156.02 922.464 1156.58 927.604C1158.18 942.428 1164.59 948.515 1180.04 944.605C1188.69 942.415 1197.37 945.62 1201.46 953.938C1208.5 968.285 1216.51 982.408 1219.75 998.289C1223.23 1015.29 1217.88 1022.39 1200.83 1025.89C1193.2 1027.46 1184.4 1024.66 1177.42 1030.6C1181.77 1040.92 1192.31 1046.5 1192.81 1057.51C1194.23 1089.13 1193.41 1120.19 1182 1150.7C1155.5 1221.58 1036.83 1246.85 979.442 1218.83C936.12 1197.68 905.7 1164.72 883.795 1123.45C860.206 1079 824.19 1054.21 775.076 1045.4C724.736 1036.37 674.401 1027.11 625.876 1009.91C573.8 991.453 531.411 960.14 497.562 917C440.709 844.544 416.809 760.223 410.061 670.064C409.169 658.15 405.406 650.602 394.828 644.401C337.03 610.523 279.607 576.007 222 541.802V524.721C265.999 550.642 309.739 577.006 353.902 602.643C371.042 612.592 386.93 625.34 406.391 630.905C416.488 616.721 410.298 609.565 398.755 602.985C352.842 576.814 307.176 550.21 259.178 522.421C246.819 515.371 234.461 508.321 222 501.213V453.641C222 452.417 222.015 451.197 222.045 449.98C236.566 457.802 253.37 461.934 263.051 457.004C249.757 448.943 237.003 441.207 223.458 432.933C224.178 427.864 225.16 422.881 226.386 417.994C232.495 421.403 238.816 424.841 244.962 429.003C282.921 451.841 282.921 451.841 295.639 446.014C273.473 432.669 251.781 419.485 229.277 408.001C230.94 402.946 232.87 398.012 235.053 393.218C260.353 407.899 285.6 422.673 311.011 437.161C318.019 441.157 325.54 446.229 335.369 435.38L241.043 381.498C243.607 376.995 246.404 372.641 249.417 368.454C283.303 387.84 317.203 407.201 351.142 426.494C357.115 429.89 363.597 433.046 372.238 425.018C348.217 411.343 325.666 398.505 300.801 384.414C286.052 376.136 271.469 367.54 256.756 359.083C259.946 355.333 263.323 351.747 266.871 348.339C305.943 370.551 344.723 392.56 384.387 414.978C390.202 417.398 395.824 421.435 402.688 417.362C390.071 405.631 328.031 369.764 274.229 341.731C278.524 338.129 283.028 334.768 287.723 331.672C306.931 342.925 326.644 353.909 347.71 363.798C357.939 372.596 369.591 378.784 382.367 382.924C371.014 374.584 360.041 365.583 344.366 360.434C327.488 349.208 310.21 338.685 292.729 328.516C297.987 325.346 303.462 322.499 309.125 320ZM432.209 698.269C435.552 761.42 454.229 819.273 485.477 872.766C530.989 950.678 600.863 994.105 687.976 1012.05C725.863 1019.86 764.143 1025.75 801.458 1036.32C839.83 1047.19 870.049 1068.16 890.124 1103.36C899.538 1119.87 909.969 1135.94 921.369 1151.14C947.017 1185.33 979.996 1208.98 1023.59 1213.33C1058.18 1216.77 1090.92 1207.83 1124.56 1192.08C1156.61 1172.44 1173.71 1144.35 1173.5 1106.05C1156.99 1126.21 1139.27 1144.02 1114.99 1154.3C1030.66 1189.99 921.613 1155.7 887.296 1055.87C876.99 1025.89 857.547 1006.57 829.224 994.59C787.16 976.797 743.078 967.657 697.779 963.439C659.966 959.919 625.962 947.169 597.902 920.792C537.1 863.635 487.023 798.191 446.8 725.162C441.879 716.229 437.07 707.235 432.209 698.269ZM468.948 614.925C446.139 599.404 431.005 606.423 426.556 633.403C424.561 645.501 428.645 655.805 433.45 665.974C476.083 756.188 531.884 837.149 604.307 906.176C631.139 931.75 663.443 945.077 700.656 947.865C742.402 950.993 782.949 960.582 822.483 974.334C861.896 988.044 889.353 1012.88 903.356 1053.58C919.76 1101.26 954.04 1132.7 1002.8 1145.5C1080.25 1165.85 1140.36 1139.3 1168.77 1075.18C1174.63 1061.96 1173.15 1053.02 1162.97 1042.04C1069.44 941.182 976.727 839.562 883.327 738.578C869.18 723.283 852.727 710.117 838.417 696.956C838.719 701.181 840.565 707.49 837.693 713.927C831.615 727.553 837.734 732.277 851.205 732.442C873.77 732.72 901.912 759.805 901.409 783.591C901.018 802.094 910.899 807.486 925.414 810.529C945.343 814.708 968.372 849.04 964.526 869.081C960.678 889.135 961.04 889.804 982.328 888.881C991.994 888.462 1001.15 890.386 1006.03 898.449C1019.11 920.088 1041.18 940.955 1015.6 966.817C1018.84 972.509 1022.93 975.797 1026.73 973.637C1052.21 959.149 1066.02 970.084 1079.53 992.75C1097.05 1022.14 1093.06 1039.72 1057.89 1052.54C1013.79 1054.15 1002.65 1039.91 1014.15 996.023C1015.67 990.219 1013.43 986.985 1009.44 983.885C1002.67 978.624 995.256 976.294 986.434 975.694C968.462 974.472 951.823 968.737 945.007 950.024C941.257 939.731 934.876 933.184 926.262 927.314C828.819 860.917 731.496 794.345 634.146 727.811C579.084 690.177 524.089 652.444 468.948 614.925ZM1045.44 984.166C1043.46 991.021 1055.5 998.016 1045.6 1004.57C1041.4 1007.35 1036.93 1009.79 1039.81 1015.39C1042.68 1020.97 1047.86 1021.68 1055.46 1017.66C1064.36 997.415 1060.83 985.474 1045.44 984.166ZM1201.37 1003.3C1208.5 989.613 1185.65 960.157 1167.26 962.162C1165.05 963.972 1160.85 965.903 1160.96 967.574C1161.9 983.212 1167.78 997.853 1178.56 1008.44C1184.69 1014.46 1196.6 1012.48 1201.37 1003.3ZM1139.68 960.225C1130.4 952.069 1120.22 959.588 1108.02 961.942C1112.5 965.535 1116.97 969.127 1123.45 973.979C1129.86 975.897 1136.54 977.16 1140.26 969.985C1141.6 967.4 1141.47 961.8 1139.68 960.225ZM1132.94 910.391C1124.3 889.191 1117.29 887.229 1096.62 901.202C1098.85 906.923 1101.18 912.907 1104.49 921.288C1105.94 924.532 1107.62 927.693 1108.78 931.036C1113.7 945.281 1124.52 944.005 1134.9 939.849C1146.38 935.255 1138.4 927.034 1136.76 920.324C1135.93 916.906 1134.28 913.68 1132.94 910.391ZM989.207 922.197C984.95 919.816 981.782 914.135 975.076 917.77C973.63 926.02 973.097 934.133 981.83 939.079C984.946 940.843 988.884 940.217 991.687 937.572C996.727 932.814 994.959 928.183 989.207 922.197ZM957.774 904.07C953.882 897.473 947.364 894.56 939.785 895.2C931.203 895.925 922.676 897.29 912.299 898.608C916.59 902.074 919.693 904.579 924.645 908.386C928.069 910.669 931.516 912.919 934.912 915.243C940.983 919.397 947.008 923.114 953.755 916.337C957.213 912.863 960.712 909.049 957.774 904.07ZM1077.59 889.904C1068.02 888.993 1059.9 890.544 1052.15 894.099C1052.92 901.367 1057.16 904.346 1064.35 907.313C1076.1 907.402 1079.79 901.514 1077.59 889.904ZM556.725 639.557C492.97 595.128 492.97 595.127 476.57 601.611L880.214 877.553C885.615 854.526 872.541 845.546 857.802 836C757.944 771.327 658.448 706.095 556.725 639.557ZM1068.59 836.773C1063.68 821.373 1052.64 822.872 1041.6 827.606C1027.6 833.607 1038.21 841.924 1041.71 851.725C1043.6 856.036 1045.66 860.283 1047.36 864.671C1052.43 877.803 1062.62 876.167 1072.35 872.459C1083.55 868.189 1077.37 859.986 1075.09 853.181C1073.22 847.611 1070.37 842.364 1068.59 836.773ZM929.323 836.771C926.991 832.694 922.888 829.354 917.52 830.342C912.251 831.312 912.107 835.892 911.867 842.643C912.019 853.743 916.877 860.267 928.691 860.705C934.144 852.37 933.656 844.344 929.323 836.771ZM1013.85 827.017C1005.81 819.939 996.603 823.313 987.936 823.91C986.743 828.45 989.518 830.162 992.778 833.798C999.292 840.015 1006.31 840.403 1013.26 834.896C1015.67 832.987 1016.23 829.117 1013.85 827.017ZM886.184 812.494C880.798 815.811 873.67 816.415 870.038 822.538C879.075 832.598 885.193 836.446 890.026 834.788C895.193 833.016 897.027 828.344 897.934 823.698C899.365 816.363 895.59 812.539 886.184 812.494ZM1006.96 771.555C1002.84 756.686 992.345 752.681 979.475 758.307C963.712 765.197 976.894 775.202 978.834 783.564C980.147 789.226 983.19 794.668 986.289 799.697C992.446 809.688 1002.05 806.995 1010.29 804.095C1019.49 800.857 1014.83 793.338 1013.1 787.391C1011.78 782.841 1009.7 778.509 1006.96 771.555ZM542.214 591.406C532.89 585.553 523.657 580.967 512.037 591.707L813.237 788.66C821.153 772.402 818.143 763.852 804.655 755.712C760.34 728.965 716.807 700.924 670.789 671.987C627.927 645.132 585.053 618.297 542.214 591.406ZM951.086 755.128C941.859 752.672 931.643 748.734 925.207 760.933C929.672 766.582 934.214 772.143 942.547 771.261C946.882 770.802 950.75 769.314 952.23 764.776C953.332 761.401 954.42 756.016 951.086 755.128ZM939.101 693.345C930.249 684.467 920.325 689.147 913.276 694.201C905.892 699.496 913.56 707.074 915.742 713.386C917.673 718.971 920.495 724.243 922.721 729.734C928.02 742.809 938.626 738.115 947.074 735.886C958.326 732.916 952.089 724.632 949.982 718.519C947.285 710.69 943.713 703.162 939.101 693.345ZM890.233 690.277C887.361 684.953 882.437 686.18 877.731 686.665C873.062 687.146 868.368 687.402 862.039 687.693C861.546 687.946 860.867 688.082 860.611 688.484C860.363 688.877 860.308 689.749 860.576 690.058C864.794 694.92 868.484 700.687 874.88 702.742C880.221 704.459 885.435 702.845 889.282 698.511C891.38 696.147 891.748 693.085 890.233 690.277ZM790.532 688.904C786.729 688.978 787.172 692.944 789.152 697.716C793.48 701.378 797.441 707.082 804.578 699.794C802.069 693.291 797.732 688.764 790.532 688.904ZM573.558 576.958C567.814 573.199 562.027 570.474 554.347 576.553C553.222 581.196 556.826 582.863 559.75 584.696C620.273 622.633 680.824 660.527 741.403 698.374C744.301 700.184 747.364 702.858 751.594 698.95C751.79 692.842 746.569 690.261 742.359 687.496C686.144 650.571 629.832 613.793 573.558 576.958ZM764.551 677.585C761.755 664.294 758.565 662.512 743.828 667.223C749.868 672.489 754.298 678.538 764.551 677.585ZM878.784 628.347C871.631 616.834 861.581 620.307 851.938 623.551C847.09 625.181 846.445 629.598 848.275 633.929C852.201 643.217 855.807 652.721 860.682 661.507C866.464 671.928 876.8 671.667 885.721 667.613C895.159 663.324 889.166 655.347 887.105 648.995C885.093 642.791 882.41 636.804 878.784 628.347ZM767.828 615.347C768.248 623.871 768.526 629.533 768.674 637.763C768.432 643.987 765.304 651.389 772.969 655.095C781.507 659.223 788.401 654.131 796.113 649.74C789.619 636.065 780.165 626.295 767.828 615.347ZM684.809 628.013C676.707 605.158 602.095 559.543 589.199 567.175C596.315 576.56 607.844 579.7 618.345 588.374C639.392 601.313 658.533 617.739 684.809 628.013ZM716.56 611.108C715.473 621.07 723.109 623.563 731.769 626.866C735.343 614.772 732.975 612.265 716.56 611.108ZM697.37 600.458C687.959 581.819 638.897 552.066 622.797 557.845C641.934 570.534 659.483 582.171 679.121 595.248C684.723 598.267 689.038 606.279 697.37 600.458ZM410.732 574.788C401.887 569.563 393.442 559.144 382.538 571.982C400.056 591.498 419.376 599.366 433.119 592.752C428.06 585.02 419.549 581.66 410.732 574.788ZM465.434 582.757C448.249 563.36 431.67 555.355 419.098 561.032C428.454 570.713 440.08 576.752 452.893 585.166C457.399 586.095 462.184 588.397 465.434 582.757ZM680.828 564.004C689.164 569.091 697.5 574.178 708.112 580.302C715.611 583.096 722.165 581.373 730.849 576.837C713.675 568.097 698.124 564.167 680.828 564.004ZM506.898 568.765C488.855 561.632 477.073 542.457 452.001 547.712C461.781 562.572 475.55 567.289 488.9 576.095C495.282 576.952 501.446 577.214 506.898 568.765ZM493.345 533.921C490.264 535.864 489.076 539.11 492.054 541.092C503.864 548.953 515.8 556.708 528.236 563.503C532.778 565.984 538.778 565.507 542.202 556.979C526.557 549.06 515.278 533.169 493.345 533.921ZM271.145 494.701C264.975 491.374 258.806 493.468 251.673 500.406C287.287 521.129 321.408 541.074 355.643 560.824C362.441 564.746 366.784 560.874 370.201 553.087C339.328 529.998 304.897 512.903 271.145 494.701ZM542.506 523.758C537.266 520.766 531.14 518.216 530.048 529.54C544.468 538.208 555.519 555.029 580.243 550.171C572.909 544.5 568.973 541.16 564.741 538.25C557.45 533.237 550.177 528.138 542.506 523.758ZM344.552 505.129C329.436 498.117 317.383 483.012 297.683 487.551C330.244 510.344 364.007 530.556 399.953 546.765C401.113 544.879 402.274 542.994 403.434 541.108C384.568 529.532 365.702 517.956 344.552 505.129ZM559.024 511.09C566.924 523.385 576.985 526.462 586.59 533.856C593.528 536.947 599.598 544.798 611.117 537.16C594.424 527.085 582.855 511.746 559.024 511.09ZM344.291 475.188C340.241 474.529 335.93 473.185 333.597 481.137C363.304 498.575 393.329 516.41 423.614 533.792C429.316 537.064 435.985 538.212 440.761 530.032C438.81 528.449 437.211 526.724 435.258 525.63C405.681 509.05 376.057 492.553 344.291 475.188ZM384.762 464.35C380.956 462.258 375.453 461.724 370.616 470.364C389.441 481.563 408.366 492.821 429.588 505.32C465.694 526.426 465.694 526.425 479.672 517.575C447.268 499.318 416.147 481.593 384.762 464.35ZM418.509 453.639C415.589 452.075 411.442 453.348 409.549 458.8C417.22 463.6 425.108 468.538 435.164 474.875C460.85 486.429 482.568 507.04 512.501 509.412C482.398 488.363 450.56 470.802 418.509 453.639ZM445.159 444.499C466.525 466.439 534.133 501.449 547.718 497.455C535.692 490.388 525.149 484.192 512.333 476.702C491.419 466.663 473.743 449.401 445.159 444.499Z" fill="#f4efe6"/>
</svg>
